# MagicaVoxel @ Ephtracy

# group
o 

# material
mtllib Polezhaevskaya_floor.mtl
usemtl palette

# normals
vn -1 0 0
vn 1 0 0
vn 0 0 1
vn 0 0 -1
vn 0 -1 0
vn 0 1 0

# texcoords
vt 0.970703 0.5
vt 0.974609 0.5

# verts
v -5 0 5
v -5 0 -5
v -5 0.8 0
v -5 0.8 -5
v -5 0.9 5
v -5 0.9 0
v -5 0.9 -5
v 5 0 5
v 5 0 -5
v 5 0.8 4
v 5 0.8 -3.5
v 5 0.9 5
v 5 0.9 4
v 5 0.9 -3.5
v 5 0.9 -5
v -5 0 5
v -5 0.9 5
v 5 0 5
v 5 0.9 5
v -5 0 -5
v -5 0.8 -5
v -5 0.9 -5
v -3 0.8 -5
v -3 0.9 -5
v 5 0 -5
v 5 0.9 -5
v -5 0 5
v 5 0 5
v -5 0 -5
v 5 0 -5
v -5 0.9 5
v 5 0.9 5
v -1.2 0.9 4.4
v 0.1 0.9 4.4
v 3.4 0.9 4
v 5 0.9 4
v 1.9 0.9 1.1
v 3.4 0.9 1.1
v -5 0.9 0
v -3 0.9 0
v -1.2 0.9 -2
v 0.1 0.9 -2
v 3.4 0.9 -3.5
v 5 0.9 -3.5
v 1.9 0.9 -4.9
v 3.4 0.9 -4.9
v -5 0.9 -5
v -3 0.9 -5
v 5 0.9 -5

# faces
f 3/1/1 2/1/1 1/1/1
f 4/1/1 2/1/1 3/1/1
f 5/1/1 3/1/1 1/1/1
f 6/2/1 4/2/1 3/2/1
f 6/1/1 3/1/1 5/1/1
f 7/2/1 4/2/1 6/2/1
f 8/1/2 9/1/2 10/1/2
f 10/1/2 9/1/2 11/1/2
f 8/1/2 10/1/2 12/1/2
f 10/2/2 11/2/2 13/2/2
f 12/1/2 10/1/2 13/1/2
f 11/1/2 9/1/2 14/1/2
f 13/2/2 11/2/2 14/2/2
f 14/1/2 9/1/2 15/1/2
f 18/1/3 17/1/3 16/1/3
f 19/1/3 17/1/3 18/1/3
f 20/1/4 21/1/4 23/1/4
f 21/2/4 22/2/4 23/2/4
f 23/2/4 22/2/4 24/2/4
f 20/1/4 23/1/4 25/1/4
f 23/1/4 24/1/4 25/1/4
f 25/1/4 24/1/4 26/1/4
f 29/1/5 28/1/5 27/1/5
f 30/1/5 28/1/5 29/1/5
f 31/1/6 32/1/6 33/1/6
f 33/1/6 32/1/6 34/1/6
f 34/1/6 32/1/6 35/1/6
f 35/1/6 32/1/6 36/1/6
f 34/1/6 35/1/6 37/1/6
f 35/2/6 36/2/6 38/2/6
f 37/1/6 35/1/6 38/1/6
f 31/1/6 33/1/6 39/1/6
f 39/1/6 33/1/6 40/1/6
f 33/2/6 34/2/6 41/2/6
f 40/1/6 33/1/6 41/1/6
f 34/1/6 37/1/6 42/1/6
f 41/2/6 34/2/6 42/2/6
f 38/2/6 36/2/6 43/2/6
f 37/2/6 38/2/6 43/2/6
f 43/2/6 36/2/6 44/2/6
f 42/1/6 37/1/6 45/1/6
f 41/1/6 42/1/6 45/1/6
f 37/2/6 43/2/6 45/2/6
f 43/1/6 44/1/6 46/1/6
f 45/2/6 43/2/6 46/2/6
f 39/2/6 40/2/6 47/2/6
f 40/1/6 41/1/6 48/1/6
f 47/2/6 40/2/6 48/2/6
f 41/1/6 45/1/6 48/1/6
f 45/1/6 46/1/6 48/1/6
f 46/1/6 44/1/6 49/1/6
f 48/1/6 46/1/6 49/1/6
